<?xml version="1.0" encoding="UTF-8"?>
<svg id="_레이어_2" data-name="레이어 2" xmlns="http://www.w3.org/2000/svg" viewBox="0 0 109.54 69.92">
  <defs>
    <style>
      .cls-1 {
        fill: #fff;
      }

      .cls-2 {
        stroke: #a3aeef;
      }

      .cls-2, .cls-3, .cls-4, .cls-5, .cls-6, .cls-7, .cls-8, .cls-9, .cls-10, .cls-11, .cls-12, .cls-13, .cls-14, .cls-15, .cls-16, .cls-17, .cls-18, .cls-19, .cls-20, .cls-21, .cls-22, .cls-23 {
        fill: none;
        stroke-linecap: round;
        stroke-linejoin: round;
        stroke-width: .5px;
      }

      .cls-3 {
        stroke: #a3bbee;
      }

      .cls-4 {
        stroke: #a3a3ef;
      }

      .cls-24 {
        fill: #041747;
      }

      .cls-5 {
        stroke: #a3beee;
      }

      .cls-6 {
        stroke: #a3abef;
      }

      .cls-7 {
        stroke: #a4cbee;
      }

      .cls-8 {
        stroke: #a4ceed;
      }

      .cls-9 {
        stroke: #a4d3ed;
      }

      .cls-10 {
        stroke: #a4c8ee;
      }

      .cls-11 {
        stroke: #a3b8ee;
      }

      .cls-12 {
        stroke: #a4dbed;
      }

      .cls-13 {
        stroke: #a3a8ef;
      }

      .cls-14 {
        stroke: #a4c3ee;
      }

      .cls-15 {
        stroke: #a4d0ed;
      }

      .cls-16 {
        stroke: #a3b6ee;
      }

      .cls-17 {
        stroke: #a3a6ef;
      }

      .cls-18 {
        stroke: #a4d6ed;
      }

      .cls-19 {
        stroke: #a3b3ee;
      }

      .cls-20 {
        stroke: #a3b0ef;
      }

      .cls-21 {
        stroke: #a4d8ed;
      }

      .cls-22 {
        stroke: #a4c6ee;
      }

      .cls-23 {
        stroke: #a4c0ee;
      }
    </style>
  </defs>
  <g id="_레이어_2-2" data-name="레이어 2">
    <g>
      <g>
        <path class="cls-4" d="M17.48,28.82c3.28-8.31,7.79-16.62,13.98-23.52,1.41-1.57,3.1-3.16,5.32-3.51,2.95-.46,5.93,1.26,7.58,3.53,1.73,2.4,1.34,6.03,2.25,8.91,.99,3.14,2.88,5.68,5.36,7.79,.75,.63,2.51,1.33,3.45,1.58,1.18,.3,2.5,0,3.42-.81,2.67-2.31,1.75-8.44,2.07-11.59,.09-.86,.41-1.76,1.17-2.3,1-.72,2.53-.59,3.6,.05s1.74,1.69,2.23,2.76c3.06,6.7,6.45,13,11.44,18.76,2.42,2.8,6.96,7.23,11.5,5.67"/>
        <path class="cls-17" d="M19.6,27.56c3.27-8.03,7.64-15.95,13.6-22.47,1.36-1.49,2.99-2.99,5.12-3.3,.94-.14,1.88-.05,2.77,.21,1.81,.53,3.46,1.75,4.52,3.22,1.66,2.28,1.28,5.75,2.15,8.49,.95,2.99,2.76,5.41,5.12,7.42,.71,.6,2.39,1.27,3.3,1.5,1.13,.29,2.39,0,3.26-.77,.29-.25,.54-.55,.75-.89,.4-.64,.67-1.42,.85-2.27,.58-2.66,.32-5.95,.57-7.93,.04-.3,.11-.61,.22-.91,.18-.49,.48-.93,.93-1.25,.97-.66,2.44-.52,3.46,.12,.86,.53,1.46,1.34,1.91,2.2,.09,.16,.17,.33,.24,.5,2.97,6.53,6.26,12.65,11.12,18.23,2.37,2.72,6.76,6.99,11.18,5.54"/>
        <path class="cls-13" d="M21.72,26.3c3.25-7.74,7.49-15.28,13.23-21.42,1.32-1.4,2.88-2.81,4.93-3.09,.9-.12,1.8-.03,2.66,.23,1.74,.52,3.33,1.7,4.36,3.09,1.59,2.17,1.23,5.46,2.06,8.07,.91,2.84,2.63,5.14,4.88,7.04,.68,.57,2.27,1.21,3.14,1.43,1.07,.27,2.27-.01,3.11-.73,.28-.25,.53-.54,.73-.86,.39-.62,.65-1.38,.83-2.19,.59-2.58,.42-5.68,.69-7.53,.04-.28,.11-.57,.22-.85,.18-.46,.47-.87,.91-1.16,.94-.61,2.34-.45,3.33,.18,.83,.53,1.4,1.31,1.83,2.15,.08,.16,.16,.32,.23,.48,2.88,6.36,6.08,12.3,10.8,17.69,2.31,2.64,6.56,6.74,10.86,5.4"/>
        <path class="cls-6" d="M23.84,25.04c3.24-7.46,7.32-14.62,12.85-20.38,1.27-1.32,2.77-2.63,4.73-2.87,.86-.11,1.72-.01,2.55,.24,1.66,.51,3.2,1.64,4.19,2.97,1.52,2.05,1.17,5.18,1.97,7.65,.86,2.69,2.5,4.87,4.64,6.67,.65,.54,2.16,1.14,2.98,1.35,1.02,.26,2.15-.01,2.95-.7,.28-.24,.51-.52,.71-.84,.38-.61,.63-1.34,.82-2.12,.59-2.5,.51-5.42,.82-7.13,.05-.27,.12-.53,.22-.79,.18-.42,.46-.81,.88-1.07,.9-.56,2.25-.38,3.19,.24,.79,.52,1.34,1.28,1.76,2.1,.08,.16,.15,.31,.23,.47,2.79,6.19,5.89,11.95,10.48,17.16,2.26,2.56,6.37,6.49,10.54,5.27"/>
        <path class="cls-2" d="M25.96,23.77c3.22-7.17,7.16-13.95,12.48-19.33,1.22-1.23,2.66-2.45,4.54-2.66,.82-.09,1.65,0,2.43,.25,1.59,.5,3.07,1.58,4.02,2.85,1.45,1.93,1.12,4.89,1.88,7.23,.82,2.54,2.38,4.6,4.4,6.3,.61,.51,2.04,1.08,2.82,1.27,.96,.24,2.03-.02,2.79-.66,.27-.23,.5-.5,.69-.81,.37-.59,.62-1.3,.81-2.05,.6-2.42,.61-5.15,.94-6.74,.05-.25,.12-.5,.23-.73,.18-.39,.45-.74,.86-.98,.87-.5,2.15-.31,3.05,.31,.75,.51,1.28,1.26,1.69,2.04,.08,.15,.15,.3,.22,.46,2.7,6.03,5.71,11.59,10.16,16.62,2.2,2.48,6.17,6.25,10.22,5.13"/>
        <path class="cls-20" d="M28.09,22.51c3.21-6.89,7-13.28,12.1-18.28,1.17-1.15,2.55-2.27,4.34-2.45,.78-.08,1.57,.02,2.32,.27,1.51,.48,2.93,1.52,3.85,2.73,1.38,1.82,1.07,4.61,1.79,6.81,.78,2.39,2.25,4.33,4.16,5.93,.58,.48,1.93,1.01,2.66,1.19,.91,.23,1.92-.02,2.63-.63,.26-.22,.48-.49,.67-.78,.36-.57,.6-1.25,.79-1.98,.61-2.34,.71-4.88,1.07-6.34,.06-.23,.13-.46,.23-.67,.18-.36,.44-.68,.84-.89,.83-.45,2.05-.24,2.91,.37,.72,.5,1.22,1.23,1.61,1.99,.07,.15,.14,.3,.21,.44,2.61,5.86,5.52,11.24,9.84,16.09,2.15,2.4,5.97,6,9.9,5"/>
        <path class="cls-19" d="M30.21,21.25c3.19-6.6,6.84-12.61,11.72-17.24,1.12-1.06,2.45-2.09,4.15-2.23,.74-.06,1.49,.04,2.21,.28,1.44,.47,2.8,1.46,3.69,2.61,1.3,1.7,1.01,4.32,1.69,6.39,.74,2.24,2.12,4.06,3.92,5.56,.55,.45,1.81,.95,2.5,1.12,.85,.21,1.8-.02,2.48-.59,.25-.21,.47-.47,.65-.76,.35-.55,.59-1.21,.78-1.91,.62-2.25,.81-4.62,1.2-5.94,.06-.21,.13-.42,.24-.61,.18-.33,.44-.62,.81-.8,.8-.4,1.96-.16,2.77,.43,.68,.5,1.16,1.2,1.54,1.94,.07,.14,.14,.29,.2,.43,2.53,5.69,5.33,10.89,9.52,15.55,2.09,2.32,5.77,5.75,9.58,4.86"/>
        <path class="cls-16" d="M32.33,19.99c3.18-6.31,6.69-11.95,11.35-16.19,1.07-.97,2.34-1.91,3.95-2.02,.71-.05,1.41,.06,2.09,.29,1.36,.47,2.67,1.4,3.52,2.49,1.23,1.58,.96,4.04,1.6,5.96,.7,2.09,1.99,3.79,3.69,5.18,.51,.42,1.7,.88,2.34,1.04,.8,.2,1.69-.02,2.32-.56,.25-.21,.45-.45,.63-.73,.34-.53,.57-1.17,.76-1.84,.63-2.17,.91-4.35,1.32-5.54,.06-.19,.14-.38,.24-.55,.18-.29,.43-.55,.79-.71,.77-.34,1.86-.09,2.63,.5,.65,.49,1.11,1.17,1.46,1.89,.07,.14,.13,.28,.2,.42,2.44,5.52,5.15,10.54,9.2,15.02,2.04,2.24,5.58,5.51,9.26,4.73"/>
        <path class="cls-11" d="M34.45,18.73c3.16-6.03,6.53-11.28,10.97-15.15,1.02-.89,2.23-1.73,3.76-1.81,.67-.03,1.34,.08,1.98,.31,1.29,.46,2.54,1.34,3.35,2.37,1.16,1.47,.91,3.76,1.51,5.54,.66,1.95,1.87,3.52,3.45,4.81,.48,.39,1.58,.82,2.19,.96,.75,.18,1.57-.03,2.16-.52,.24-.2,.44-.44,.61-.7,.33-.52,.55-1.13,.75-1.77,.64-2.09,1.01-4.08,1.45-5.14,.07-.17,.14-.34,.25-.5,.17-.26,.42-.49,.76-.62,.73-.29,1.76-.02,2.5,.56,.61,.48,1.05,1.14,1.39,1.84,.07,.13,.13,.27,.19,.41,2.35,5.35,4.96,10.19,8.88,14.49,1.98,2.16,5.38,5.26,8.94,4.59"/>
        <path class="cls-3" d="M36.57,17.47c3.15-5.74,6.37-10.61,10.6-14.1,.97-.8,2.12-1.55,3.56-1.59,.63-.02,1.26,.1,1.87,.32,1.21,.45,2.41,1.28,3.18,2.24,1.08,1.35,.85,3.47,1.42,5.12,.61,1.8,1.74,3.25,3.21,4.44,.44,.36,1.47,.75,2.03,.89,.69,.17,1.45-.03,2-.49,.23-.19,.42-.42,.59-.68,.32-.5,.54-1.09,.74-1.7,.65-2.01,1.1-3.81,1.57-4.74,.07-.15,.15-.3,.25-.44,.17-.23,.41-.43,.74-.54,.7-.24,1.67,.05,2.36,.62,.58,.48,.99,1.12,1.32,1.79,.06,.13,.12,.26,.18,.39,2.26,5.18,4.76,9.84,8.56,13.95,1.92,2.08,5.18,5.01,8.62,4.46"/>
        <path class="cls-5" d="M38.69,16.21c3.13-5.46,6.22-9.94,10.22-13.05,.92-.72,2.01-1.35,3.37-1.38,.59-.01,1.18,.12,1.75,.34,1.14,.43,2.28,1.22,3.02,2.12,1.01,1.23,.8,3.19,1.33,4.7,.57,1.65,1.61,2.98,2.97,4.07,.41,.33,1.35,.69,1.87,.81,.64,.15,1.34-.03,1.85-.45,.22-.18,.41-.4,.57-.65,.31-.48,.52-1.05,.72-1.63,.66-1.92,1.2-3.54,1.7-4.34,.08-.12,.15-.26,.26-.38,.17-.2,.4-.36,.71-.45,.67-.18,1.57,.12,2.22,.69,.54,.47,.93,1.09,1.24,1.73,.06,.13,.12,.25,.17,.38,2.17,5.01,4.58,9.49,8.24,13.42,1.87,2,4.98,4.76,8.3,4.32"/>
        <path class="cls-23" d="M40.81,14.94c3.12-5.17,6.06-9.28,9.85-12.01,.88-.63,1.9-1.19,3.18-1.16,.55,.01,1.1,.14,1.64,.35,1.06,.42,2.14,1.16,2.85,2,.94,1.12,.75,2.9,1.24,4.28,.53,1.5,1.49,2.71,2.73,3.7,.38,.3,1.24,.62,1.71,.73,.58,.13,1.22-.03,1.69-.41,.21-.18,.4-.39,.55-.62,.3-.46,.51-1,.71-1.56,.67-1.84,1.29-3.26,1.82-3.94,.08-.1,.16-.22,.26-.32,.17-.16,.39-.3,.69-.36,.63-.13,1.47,.19,2.08,.75,.5,.46,.87,1.06,1.17,1.68,.06,.12,.11,.24,.17,.37,2.08,4.84,4.39,9.14,7.92,12.88,1.81,1.92,4.79,4.52,7.98,4.19"/>
        <path class="cls-14" d="M42.94,13.68c3.1-4.89,5.91-8.61,9.47-10.96,.83-.55,1.79-1.01,2.98-.95,.51,.03,1.03,.15,1.53,.36,.99,.41,2.01,1.1,2.68,1.88,.86,1,.69,2.62,1.14,3.86,.49,1.35,1.36,2.44,2.49,3.32,.34,.27,1.12,.56,1.55,.65,.53,.12,1.11-.03,1.53-.38,.21-.17,.38-.37,.53-.6,.29-.44,.49-.96,.69-1.49,.68-1.76,1.39-2.99,1.95-3.54,.08-.08,.16-.18,.27-.26,.17-.13,.39-.23,.66-.27,.6-.07,1.38,.26,1.94,.81,.47,.45,.81,1.03,1.09,1.63,.05,.12,.11,.24,.16,.35,1.99,4.67,4.2,8.79,7.61,12.35,1.76,1.84,4.59,4.27,7.66,4.05"/>
        <path class="cls-22" d="M45.06,12.42c3.09-4.6,5.76-7.94,9.09-9.92,.78-.46,1.68-.83,2.79-.74,.47,.04,.95,.17,1.41,.38,.91,.4,1.88,1.04,2.51,1.76,.78,.89,.64,2.34,1.05,3.44,.45,1.2,1.23,2.17,2.25,2.95,.31,.24,1.01,.49,1.39,.58,.47,.1,.99-.03,1.37-.34,.2-.16,.37-.35,.51-.57,.28-.42,.48-.92,.68-1.42,.69-1.68,1.47-2.71,2.08-3.15,.09-.06,.17-.14,.27-.2,.17-.1,.38-.17,.64-.18,.57-.02,1.28,.33,1.81,.88,.43,.45,.75,1,1.02,1.58,.05,.11,.1,.23,.15,.34,1.9,4.5,4.02,8.44,7.29,11.82,1.7,1.76,4.39,4.02,7.34,3.92"/>
        <path class="cls-10" d="M47.18,11.16c3.07-4.32,5.6-7.27,8.72-8.87,.73-.38,1.57-.66,2.59-.52,.43,.06,.87,.19,1.3,.39,.84,.39,1.75,.98,2.34,1.64,.71,.77,.59,2.05,.96,3.02,.4,1.05,1.11,1.9,2.01,2.58,.28,.21,.89,.43,1.23,.5,.42,.09,.88-.04,1.22-.31,.19-.15,.35-.34,.49-.54,.27-.41,.46-.88,.67-1.35,.7-1.59,1.56-2.44,2.2-2.75,.09-.04,.17-.1,.28-.14,.17-.07,.37-.11,.61-.09,.53,.04,1.18,.4,1.67,.94,.4,.44,.69,.98,.95,1.53,.05,.11,.1,.22,.14,.33,1.82,4.33,3.83,8.08,6.97,11.28,1.65,1.68,4.19,3.78,7.02,3.78"/>
        <path class="cls-7" d="M49.3,9.9c3.06-4.03,5.46-6.6,8.34-7.82,.69-.29,1.46-.48,2.4-.31,.4,.07,.8,.21,1.19,.4,.76,.38,1.61,.92,2.18,1.52,.63,.66,.53,1.77,.87,2.6,.36,.9,.98,1.63,1.77,2.21,.24,.18,.78,.36,1.08,.42,.37,.07,.76-.04,1.06-.27,.18-.14,.34-.32,.47-.52,.26-.39,.44-.84,.65-1.28,.72-1.51,1.63-2.17,2.33-2.35,.09-.02,.18-.06,.28-.08,.17-.03,.36-.04,.59,0,.5,.09,1.09,.47,1.53,1,.36,.43,.64,.95,.87,1.47,.05,.1,.09,.21,.13,.31,1.73,4.16,3.65,7.73,6.65,10.75,1.59,1.6,4,3.53,6.7,3.65"/>
        <path class="cls-8" d="M51.42,8.64c3.04-3.74,5.31-5.93,7.97-6.78,.64-.2,1.35-.3,2.2-.1,.36,.09,.72,.23,1.07,.42,.69,.37,1.48,.86,2.01,1.39s.48,1.48,.78,2.18c.32,.75,.85,1.36,1.53,1.84,.21,.15,.66,.3,.92,.34,.31,.06,.65-.04,.9-.24,.17-.14,.32-.3,.45-.49,.25-.37,.43-.8,.64-1.21,.73-1.43,1.73-1.79,2.45-1.95,.09-.02,.19-.03,.28-.02,.17,0,.35,.02,.56,.09,.47,.15,.99,.54,1.39,1.06,.33,.42,.58,.92,.8,1.42,.04,.1,.09,.2,.13,.3,1.64,3.99,3.46,7.38,6.33,10.21,1.54,1.52,3.8,3.28,6.38,3.51"/>
        <path class="cls-15" d="M53.54,7.37c3.03-3.46,5.17-5.26,7.59-5.73,.6-.12,1.24-.12,2.01,.12,.32,.1,.64,.25,.96,.43,.61,.36,1.34,.8,1.84,1.27,.46,.44,.43,1.2,.69,1.75,.28,.6,.73,1.09,1.29,1.46,.18,.12,.55,.23,.76,.27,.26,.04,.53-.04,.74-.2,.17-.13,.31-.29,.43-.46,.24-.35,.41-.75,.62-1.14,.74-1.35,1.8-1.66,2.58-1.55,.09,.01,.19,.02,.29,.03,.17,.03,.35,.09,.54,.18,.43,.2,.9,.62,1.25,1.13,.29,.42,.52,.89,.72,1.37,.04,.1,.08,.19,.12,.29,1.55,3.82,3.27,7.03,6.01,9.68,1.48,1.44,3.6,3.04,6.06,3.38"/>
        <path class="cls-9" d="M55.67,6.11c3.01-3.17,5.03-4.57,7.21-4.69,.55-.03,1.13,.06,1.81,.33,.28,.11,.56,.26,.85,.45,.54,.35,1.2,.74,1.67,1.15,.38,.33,.37,.91,.59,1.33,.24,.46,.6,.82,1.05,1.09,.14,.08,.43,.17,.6,.19,.2,.03,.42-.04,.59-.16,.16-.12,.29-.27,.41-.44,.23-.33,.4-.71,.61-1.06,.75-1.26,1.89-1.41,2.71-1.15,.1,.03,.2,.06,.29,.09,.17,.07,.34,.15,.52,.26,.4,.26,.8,.69,1.12,1.19,.26,.41,.46,.86,.65,1.32,.04,.09,.08,.18,.11,.28,1.46,3.66,3.09,6.67,5.69,9.14,1.43,1.36,3.4,2.79,5.74,3.24"/>
        <path class="cls-18" d="M57.79,4.85c3-2.89,4.89-3.88,6.84-3.64,.51,.06,1.03,.23,1.62,.54,.24,.13,.49,.28,.73,.46,.47,.34,1.06,.69,1.51,1.03,.29,.22,.32,.63,.5,.91,.2,.31,.47,.55,.81,.72,.11,.05,.32,.1,.44,.11,.15,.01,.3-.04,.43-.13,.15-.11,.28-.25,.39-.41,.22-.32,.38-.67,.6-.99,.77-1.18,1.98-1.16,2.83-.75,.1,.05,.2,.1,.3,.15,.17,.1,.33,.21,.49,.35,.37,.31,.7,.76,.98,1.25,.22,.4,.4,.84,.58,1.27,.04,.09,.07,.18,.1,.26,1.37,3.49,2.91,6.31,5.37,8.61,1.37,1.27,3.21,2.54,5.42,3.11"/>
        <path class="cls-21" d="M59.91,3.59c2.98-2.6,4.74-3.18,6.46-2.59,.46,.16,.92,.41,1.42,.76,.2,.14,.41,.3,.62,.47,.39,.33,.92,.64,1.34,.91,.2,.13,.26,.34,.41,.49,.16,.16,.35,.28,.57,.35,.08,.02,.2,.04,.28,.04,.09,0,.19-.04,.27-.09,.15-.1,.26-.24,.37-.38,.21-.3,.37-.63,.58-.92,.78-1.09,2.08-.91,2.96-.35,.11,.07,.21,.14,.3,.21,.17,.13,.32,.28,.47,.44,.33,.37,.61,.83,.84,1.32,.19,.39,.34,.81,.5,1.22,.03,.08,.06,.17,.1,.25,1.28,3.32,2.72,5.96,5.05,8.08,1.32,1.19,3.01,2.29,5.1,2.97"/>
        <path class="cls-12" d="M62.03,2.33c4.09-3.19,5.6-2.29,7.82-.09,.32,.31,.75,.64,1.17,.79,.29,.1,.63,.11,.89-.05,.14-.09,.25-.22,.35-.36,.2-.28,.36-.58,.57-.85,.9-1.13,2.53-.55,3.39,.32s1.17,2,1.57,3.08c1.9,5.09,4.13,8.42,9.6,10.61"/>
      </g>
      <g>
        <path class="cls-1" d="M105.54,52.57h1.43c.6,0,1.17-.24,1.58-.66,.42-.42,.65-.99,.65-1.59-.04-6.09-4.82-10.18-11.89-10.18-3.87,0-7.22,1.23-9.43,3.46-.6,.61-1.1,1.28-1.5,1.99v-5.11h-10.93v7.8c-2.13-5.04-6.76-8.14-12.84-8.14s-10.66,3.06-12.82,8.05c-1.18-4.7-5.29-7.71-10.99-7.71h-12.71v6.38c-2.1-4.2-6.43-6.72-12.02-6.72C5.67,40.15,.02,46.13,0,55.04c.02,8.9,5.67,14.88,14.07,14.88,5.92,0,10.03-2.98,12.02-6.73v6.39h10.93v-6.25l3.33,6.25s0,0,0,0h8.38c.79,0,1.52-.42,1.92-1.09,.4-.68,.42-1.52,.04-2.21l-4.03-7.39c.74-.59,1.36-1.29,1.87-2.06,.73,7.91,6.2,13.1,14.08,13.1,6.08,0,10.71-3.1,12.84-8.14v7.8h10.93v-4.38c2.06,3.02,5.81,4.68,10.96,4.69h.01c7.48-.02,12.15-3.76,12.19-9.8-.02-2.45-.85-5.4-4-7.51Zm-80.32,3.76s-6.58-.07-6.59-.07c-1.09,0-2.03,.79-2.2,1.87-.13,.82-.5,1.65-2.21,1.66-.84,0-3.08-.02-3.08-4.77,0-3.17,1.04-4.77,3.11-4.77s2.49,1.15,2.03,3.84c0,0,0,0,0,0h8.92c.31,0,.62-.07,.9-.19v2.61c-.27-.12-.57-.19-.88-.19Zm13.62-4.78s-.3,.29-1.53,.29h-.28v-1.72h.27c.82,0,1.3,.16,1.48,.3,.13,.1,.15,.43,.15,.65,0,.31-.05,.46-.08,.49Zm23.77,7.28c-1.85,0-2.86-1.35-2.86-3.8s1.01-3.8,2.86-3.8,2.85,1.34,2.84,3.8c0,2.45-1.02,3.79-2.84,3.8Zm24.2-2.26c-.14,0-.28,.02-.42,.04v-2c.41,.69,.94,1.35,1.65,1.96h-1.23Zm10.44,3.5c-.98,0-1.48-.21-1.74-.48l.92,.2c.44,.1,.8,.19,1.08,.27-.08,0-.17,0-.27,0Z"/>
        <g>
          <path class="cls-24" d="M14.24,48.03c-3.42,0-5.34,2.6-5.34,7.01,0,4.63,1.97,6.99,5.31,7.01,2.5-.02,4.06-1.34,4.42-3.54l6.56,.07c-.36,4.22-4.03,9.11-11.12,9.11s-11.82-4.49-11.84-12.65c.02-8.2,5.22-12.65,11.84-12.65,6.14,0,10.58,3.44,11.12,9.49h-6.56c-.22-2.31-1.77-3.84-4.39-3.84Z"/>
          <path class="cls-24" d="M28.32,42.72h10.48c5.51,0,9.11,3.13,9.11,8.33,0,3.4-1.56,5.8-4.22,7.06l5.03,9.23h-7.04l-4.37-8.2h-2.53v8.2h-6.46v-24.62Zm8.98,11.36c2.43,0,3.86-.88,3.84-3.03,.02-2.18-1.41-3.15-3.84-3.16h-2.52v6.19h2.52Z"/>
          <path class="cls-24" d="M62.61,67.68c-6.72,0-11.92-4.51-11.94-12.65,.02-8.2,5.22-12.65,11.94-12.65s11.9,4.46,11.9,12.65-5.26,12.65-11.9,12.65Zm0-5.65c3.37-.02,5.26-2.48,5.24-7.01,.02-4.54-1.87-7.01-5.24-7.01s-5.27,2.47-5.27,7.01,1.87,6.99,5.27,7.01Z"/>
          <path class="cls-24" d="M84.15,67.34h-6.46v-24.62h6.46v24.62Z"/>
          <path class="cls-24" d="M97.31,47.72c-2.13-.02-3.11,.83-3.13,1.97-.05,1.27,1.11,1.97,3.4,2.45l2.04,.48c5.29,1.12,7.65,3.69,7.69,7.48-.03,4.83-3.74,7.53-9.96,7.55-6.36-.02-10.49-2.77-10.54-8.84h6.19c.1,2.3,1.68,3.5,4.25,3.5,2.23,0,3.42-.9,3.44-2.21-.02-1.19-1.04-1.89-3.78-2.48l-2.48-.54c-4.34-.95-6.99-3.09-6.97-6.9-.03-4.66,4.08-7.79,9.86-7.79s9.63,3.18,9.66,7.96h-6.22c-.14-1.65-1.22-2.64-3.44-2.62Z"/>
        </g>
      </g>
    </g>
  </g>
</svg>